<?xml version="1.0" standalone="no"?>
<!DOCTYPE svg PUBLIC "-//W3C//DTD SVG 20010904//EN"
 "http://www.w3.org/TR/2001/REC-SVG-20010904/DTD/svg10.dtd">
<svg version="1.0" xmlns="http://www.w3.org/2000/svg"
 width="2134.000000pt" height="2134.000000pt" viewBox="0 0 2134.000000 2134.000000"
 preserveAspectRatio="xMidYMid meet">
<metadata>
Created by potrace 1.14, written by Peter Selinger 2001-2017
</metadata>
<g transform="translate(0.000000,2134.000000) scale(0.100000,-0.100000)"
fill="#000000" stroke="none">
<path d="M10288 18584 c-2 -1 -55 -5 -118 -9 -63 -3 -126 -8 -140 -10 -14 -2
-65 -7 -115 -10 -49 -3 -97 -8 -105 -10 -8 -2 -46 -6 -83 -10 -37 -3 -77 -8
-87 -10 -10 -2 -45 -6 -77 -10 -32 -3 -65 -8 -73 -10 -14 -4 -34 -7 -125 -20
-22 -3 -51 -8 -65 -11 -14 -2 -36 -7 -50 -9 -14 -3 -34 -7 -45 -9 -11 -2 -40
-7 -65 -12 -25 -4 -47 -8 -50 -9 -7 -2 -81 -17 -100 -20 -8 -2 -33 -8 -55 -13
-22 -6 -51 -13 -65 -16 -235 -44 -912 -254 -1117 -347 -23 -10 -48 -19 -55
-19 -8 0 -18 -4 -24 -9 -5 -4 -59 -29 -120 -54 -148 -61 -495 -226 -584 -278
-8 -4 -89 -49 -178 -99 l-164 -91 -66 38 c-199 114 -498 230 -682 267 -14 2
-50 10 -80 16 -162 32 -271 40 -455 36 -93 -2 -181 -7 -195 -9 -14 -3 -41 -8
-60 -11 -171 -27 -314 -74 -490 -161 -624 -308 -1098 -986 -1419 -2033 -35
-113 -105 -373 -116 -430 -1 -9 -8 -35 -13 -57 -6 -22 -13 -51 -16 -65 -2 -14
-11 -57 -20 -96 -18 -86 -82 -442 -91 -504 -3 -25 -8 -56 -10 -70 -10 -57 -16
-97 -20 -134 -3 -21 -7 -55 -9 -75 -3 -20 -8 -61 -11 -91 -4 -30 -8 -66 -10
-80 -2 -14 -6 -54 -10 -90 -3 -36 -8 -81 -10 -100 -6 -50 -15 -154 -30 -340
-2 -30 -7 -109 -10 -175 -4 -66 -8 -145 -10 -175 -17 -219 -22 -856 -10 -1205
10 -313 10 -420 1 -505 -26 -241 -31 -374 -31 -775 1 -333 8 -583 19 -642 2
-10 7 -56 10 -103 4 -47 8 -96 10 -110 2 -14 7 -52 11 -85 4 -33 8 -71 10 -85
2 -14 7 -47 10 -75 3 -27 8 -61 10 -75 3 -14 7 -43 11 -65 4 -34 27 -166 40
-230 2 -11 9 -47 15 -80 6 -33 21 -107 35 -164 13 -57 26 -116 29 -132 3 -15
9 -39 15 -53 5 -15 7 -26 5 -26 -2 0 0 -11 5 -25 5 -14 12 -36 14 -48 19 -108
224 -743 281 -872 7 -16 27 -64 43 -105 146 -366 384 -832 609 -1193 207 -332
512 -747 726 -987 328 -369 579 -619 887 -881 116 -99 384 -309 457 -359 12
-8 59 -42 105 -74 135 -97 166 -118 308 -208 200 -127 370 -226 555 -323 61
-32 114 -62 119 -66 6 -5 16 -9 24 -9 10 0 -86 138 -118 170 -16 16 -95 129
-154 220 -38 58 -79 121 -91 140 -48 73 -150 260 -212 390 -198 410 -337 854
-403 1290 -6 41 -13 86 -16 100 -2 14 -6 54 -10 90 -3 36 -8 74 -10 85 -21
112 -21 736 0 865 2 14 7 54 11 90 3 36 8 74 10 85 2 11 7 43 10 70 3 28 8 57
10 65 2 8 6 32 9 52 3 21 10 57 15 80 6 24 13 59 16 78 3 19 11 53 16 75 6 22
12 47 14 55 43 215 195 638 326 907 118 243 325 584 443 733 19 25 67 85 106
134 143 183 388 439 574 601 234 203 568 435 821 569 39 21 77 42 85 47 37 23
284 135 398 181 237 94 662 220 827 243 22 4 47 8 55 10 8 2 29 6 45 9 212 32
223 33 315 41 41 4 86 9 100 11 14 2 117 6 230 9 220 5 421 13 485 20 38 4 59
6 165 20 281 37 695 150 915 250 17 7 72 32 124 55 481 216 977 594 1311 1000
25 30 47 57 50 60 16 15 156 208 207 285 260 393 448 842 543 1302 11 50 22
113 25 140 4 26 8 55 10 63 2 8 7 38 10 65 4 28 8 61 10 74 11 64 19 255 20
426 0 225 -10 361 -41 575 -27 179 -122 563 -154 622 -6 10 -10 23 -10 30 0
24 -115 298 -179 428 -72 144 -171 315 -242 418 -24 35 -55 80 -69 100 -279
408 -714 801 -1200 1085 -326 190 -819 369 -1172 427 -35 5 -72 12 -83 14 -11
2 -63 9 -115 15 -52 7 -108 15 -125 18 -30 6 -732 13 -737 7z"/>
<path d="M14248 17698 c64 -82 162 -213 193 -259 75 -113 101 -154 158 -249
34 -58 66 -112 72 -120 38 -62 208 -422 252 -535 129 -327 244 -752 272 -1000
3 -27 8 -57 10 -65 2 -8 7 -42 10 -75 4 -33 8 -76 11 -95 24 -213 24 -795 -1
-929 -1 -9 -6 -45 -10 -81 -3 -36 -8 -76 -10 -90 -82 -554 -255 -1075 -513
-1545 -88 -160 -108 -194 -225 -370 -326 -492 -809 -966 -1315 -1292 -498
-322 -1094 -560 -1647 -658 -58 -11 -215 -35 -250 -39 -22 -3 -65 -8 -95 -12
-105 -13 -300 -23 -560 -29 -204 -4 -252 -7 -427 -30 -106 -13 -129 -16 -143
-20 -8 -2 -30 -7 -47 -10 -79 -13 -97 -16 -103 -20 -4 -2 -22 -7 -41 -10 -87
-15 -419 -114 -504 -150 -16 -7 -65 -27 -108 -44 -135 -55 -394 -185 -487
-245 -186 -120 -316 -211 -425 -299 -131 -106 -338 -301 -436 -413 -30 -33
-68 -76 -84 -95 -55 -62 -210 -272 -276 -374 -204 -315 -350 -634 -454 -992
-25 -83 -47 -163 -50 -177 -3 -14 -7 -38 -10 -53 -3 -16 -12 -59 -20 -98 -15
-73 -31 -172 -39 -240 -3 -22 -8 -57 -10 -78 -10 -77 -19 -256 -19 -397 -1
-210 15 -411 48 -607 3 -18 7 -45 9 -60 10 -62 34 -180 42 -205 3 -9 7 -25 9
-37 34 -180 168 -536 295 -787 79 -157 226 -404 268 -450 9 -10 30 -39 46 -64
136 -211 521 -606 756 -775 30 -22 57 -42 60 -46 7 -8 221 -153 240 -162 8 -4
33 -18 55 -32 256 -159 623 -315 945 -402 96 -25 111 -29 164 -39 16 -2 32 -7
35 -9 4 -2 25 -6 47 -9 38 -6 56 -9 114 -21 14 -2 45 -7 70 -10 25 -4 57 -8
73 -11 15 -2 51 -6 80 -9 28 -2 90 -7 137 -11 152 -13 538 -8 810 11 127 9
218 16 240 20 14 2 55 6 92 10 37 3 76 8 87 10 11 2 46 6 78 10 32 3 67 8 78
10 11 3 38 7 60 10 22 3 70 10 108 15 37 6 87 14 112 20 25 6 62 13 83 16 20
3 79 15 131 26 51 11 101 21 110 23 9 2 39 9 66 15 28 6 57 13 65 15 8 2 44
11 80 20 36 9 70 18 75 20 86 20 417 120 560 169 123 42 173 60 325 119 104
40 340 142 467 203 65 31 143 68 173 82 30 14 123 63 205 108 197 107 217 118
302 170 40 24 78 44 85 44 6 0 51 -20 99 -45 196 -101 508 -208 674 -231 22
-3 56 -9 75 -14 19 -4 42 -8 50 -8 8 0 49 -3 90 -7 124 -13 424 -6 450 10 3 2
26 6 50 10 132 18 318 80 474 156 588 289 1064 948 1374 1899 81 248 157 530
188 700 3 14 8 34 11 45 4 11 7 27 8 35 1 8 12 62 23 120 12 58 24 119 27 135
29 166 35 206 40 245 3 25 9 70 15 100 5 30 11 73 14 95 13 104 16 128 21 168
3 23 7 58 10 77 2 19 7 64 10 100 4 36 8 76 10 90 2 14 6 59 10 100 3 41 8 95
10 120 5 51 15 196 29 425 25 388 25 1109 1 1590 -5 99 -5 222 -1 275 9 103
20 418 19 590 0 175 -11 513 -18 549 -1 9 -6 61 -9 116 -4 55 -9 111 -11 125
-2 14 -7 54 -10 90 -4 36 -9 72 -10 80 -2 8 -6 42 -9 75 -4 33 -9 67 -11 75
-2 8 -6 38 -10 65 -13 108 -69 412 -95 520 -5 22 -23 99 -40 170 -99 420 -262
900 -449 1325 -46 104 -231 479 -285 577 -172 313 -341 580 -554 873 -105 144
-273 358 -341 435 -20 23 -47 55 -61 72 -23 28 -119 135 -199 222 -115 124
-322 329 -491 486 -76 70 -260 227 -365 310 -55 44 -102 82 -105 85 -3 3 -54
42 -113 85 -285 211 -549 383 -824 538 -161 91 -359 197 -369 197 -3 0 17 -28
44 -62z"/>
</g>
</svg>
